<?xml version="1.0" encoding="utf-8"?>
<!-- Generator: Adobe Illustrator 28.0.0, SVG Export Plug-In . SVG Version: 6.00 Build 0)  -->
<svg version="1.1" id="Layer_1" xmlns="http://www.w3.org/2000/svg" xmlns:xlink="http://www.w3.org/1999/xlink" x="0px" y="0px"
	 viewBox="0 0 612 792" style="enable-background:new 0 0 612 792;" xml:space="preserve">
<style type="text/css">
	.st0{fill:#FFFFFF;}
	.st1{fill:none;stroke:#000000;stroke-miterlimit:10;}
</style>
<g id="BG">
	<polygon class="st0" points="440.7,115.4 328.5,3.1 283.5,3.1 171.3,115.4 171.3,339.9 227.4,396 171.3,452.1 171.3,676.6 
		283.5,788.9 328.5,788.9 440.7,676.6 440.7,452.1 384.6,396 440.7,339.9 	"/>
</g>
<g id="_x34_D">
	<line class="st1" x1="216.2" y1="115.4" x2="216.2" y2="339.9"/>
	<line class="st1" x1="216.2" y1="452.1" x2="216.2" y2="676.6"/>
	<line class="st1" x1="216.2" y1="676.6" x2="328.5" y2="788.9"/>
	<line class="st1" x1="216.2" y1="115.4" x2="328.5" y2="3.1"/>
	<line class="st1" x1="328.5" y1="115.4" x2="328.5" y2="339.9"/>
	<line class="st1" x1="328.5" y1="452.1" x2="328.5" y2="676.6"/>
	<line class="st1" x1="272.3" y1="396" x2="216.2" y2="452.1"/>
	<line class="st1" x1="216.2" y1="339.9" x2="328.5" y2="452.1"/>
	<line class="st1" x1="440.7" y1="676.6" x2="440.7" y2="452.1"/>
	<line class="st1" x1="440.7" y1="339.9" x2="440.7" y2="115.4"/>
	<line class="st1" x1="440.7" y1="115.4" x2="328.5" y2="3.1"/>
	<line class="st1" x1="440.7" y1="676.6" x2="328.5" y2="788.9"/>
	<line class="st1" x1="328.5" y1="676.6" x2="328.5" y2="452.1"/>
	<line class="st1" x1="328.5" y1="339.9" x2="328.5" y2="115.4"/>
	<line class="st1" x1="384.6" y1="396" x2="440.7" y2="339.9"/>
	<line class="st1" x1="440.7" y1="452.1" x2="328.5" y2="339.9"/>
	<line class="st1" x1="171.3" y1="115.4" x2="171.3" y2="339.9"/>
	<line class="st1" x1="171.3" y1="452.1" x2="171.3" y2="676.6"/>
	<line class="st1" x1="171.3" y1="676.6" x2="283.5" y2="788.9"/>
	<line class="st1" x1="171.3" y1="115.4" x2="283.5" y2="3.1"/>
	<line class="st1" x1="283.5" y1="115.4" x2="283.5" y2="339.9"/>
	<line class="st1" x1="283.5" y1="452.1" x2="283.5" y2="676.6"/>
	<line class="st1" x1="227.4" y1="396" x2="171.3" y2="452.1"/>
	<line class="st1" x1="171.3" y1="339.9" x2="283.5" y2="452.1"/>
	<line class="st1" x1="395.8" y1="676.6" x2="395.8" y2="452.1"/>
	<line class="st1" x1="395.8" y1="339.9" x2="395.8" y2="115.4"/>
	<line class="st1" x1="395.8" y1="115.4" x2="283.5" y2="3.1"/>
	<line class="st1" x1="395.8" y1="676.6" x2="283.5" y2="788.9"/>
	<line class="st1" x1="283.5" y1="676.6" x2="283.5" y2="452.1"/>
	<line class="st1" x1="283.5" y1="339.9" x2="283.5" y2="115.4"/>
	<line class="st1" x1="339.7" y1="396" x2="395.8" y2="339.9"/>
	<line class="st1" x1="395.8" y1="452.1" x2="283.5" y2="339.9"/>
	<line class="st1" x1="328.5" y1="3.1" x2="283.5" y2="3.1"/>
	<line class="st1" x1="395.8" y1="115.4" x2="440.7" y2="115.4"/>
	<line class="st1" x1="395.8" y1="339.9" x2="440.7" y2="339.9"/>
	<line class="st1" x1="384.6" y1="396" x2="339.7" y2="396"/>
	<line class="st1" x1="328.5" y1="339.9" x2="283.5" y2="339.9"/>
	<line class="st1" x1="283.5" y1="115.4" x2="328.5" y2="115.4"/>
	<line class="st1" x1="216.2" y1="339.9" x2="171.3" y2="339.9"/>
	<line class="st1" x1="216.2" y1="115.4" x2="171.3" y2="115.4"/>
	<line class="st1" x1="272.3" y1="396" x2="227.4" y2="396"/>
	<line class="st1" x1="216.2" y1="452.1" x2="171.3" y2="452.1"/>
	<line class="st1" x1="283.5" y1="452.1" x2="328.5" y2="452.1"/>
	<line class="st1" x1="283.5" y1="676.6" x2="328.5" y2="676.6"/>
	<line class="st1" x1="395.8" y1="676.6" x2="440.7" y2="676.6"/>
	<line class="st1" x1="440.7" y1="452.1" x2="395.8" y2="452.1"/>
	<line class="st1" x1="283.5" y1="788.9" x2="328.5" y2="788.9"/>
	<line class="st1" x1="171.3" y1="676.6" x2="216.2" y2="676.6"/>
</g>
<g id="_x33_D-4D">
	<line class="st1" x1="321" y1="657.9" x2="328.5" y2="788.9"/>
	<line class="st1" x1="291" y1="657.9" x2="283.5" y2="788.9"/>
	<line class="st1" x1="395.8" y1="583.1" x2="440.7" y2="676.6"/>
	<line class="st1" x1="365.9" y1="583.1" x2="395.8" y2="676.6"/>
	<line class="st1" x1="395.8" y1="433.4" x2="440.7" y2="452.1"/>
	<line class="st1" x1="365.9" y1="433.4" x2="395.8" y2="452.1"/>
	<line class="st1" x1="384.6" y1="396" x2="358.4" y2="396"/>
	<line class="st1" x1="328.5" y1="396" x2="339.7" y2="396"/>
	<line class="st1" x1="440.7" y1="339.9" x2="395.8" y2="358.6"/>
	<line class="st1" x1="365.9" y1="358.6" x2="395.8" y2="339.9"/>
	<line class="st1" x1="395.8" y1="208.9" x2="440.7" y2="115.4"/>
	<line class="st1" x1="395.8" y1="115.4" x2="365.9" y2="208.9"/>
	<line class="st1" x1="328.5" y1="3.1" x2="321" y2="134.1"/>
	<line class="st1" x1="283.5" y1="3.1" x2="291" y2="134.1"/>
	<line class="st1" x1="216.2" y1="208.9" x2="171.3" y2="115.4"/>
	<line class="st1" x1="216.2" y1="115.4" x2="246.1" y2="208.9"/>
	<line class="st1" x1="171.3" y1="339.9" x2="216.2" y2="358.6"/>
	<line class="st1" x1="216.2" y1="339.9" x2="246.1" y2="358.6"/>
	<line class="st1" x1="216.2" y1="433.4" x2="171.3" y2="452.1"/>
	<line class="st1" x1="246.1" y1="433.4" x2="216.2" y2="452.1"/>
	<line class="st1" x1="283.5" y1="396" x2="272.3" y2="396"/>
	<line class="st1" x1="253.6" y1="396" x2="227.4" y2="396"/>
	<line class="st1" x1="216.2" y1="583.1" x2="171.3" y2="676.6"/>
	<line class="st1" x1="246.1" y1="583.1" x2="216.2" y2="676.6"/>
	<line class="st1" x1="291" y1="358.6" x2="283.5" y2="339.9"/>
	<line class="st1" x1="321" y1="358.6" x2="328.5" y2="339.9"/>
	<line class="st1" x1="291" y1="208.9" x2="283.5" y2="115.4"/>
	<line class="st1" x1="321" y1="208.9" x2="328.5" y2="115.4"/>
	<line class="st1" x1="291" y1="433.4" x2="283.5" y2="452.1"/>
	<line class="st1" x1="321" y1="433.4" x2="328.5" y2="452.1"/>
	<line class="st1" x1="291" y1="583.1" x2="283.5" y2="676.6"/>
	<line class="st1" x1="321" y1="583.1" x2="328.5" y2="676.6"/>
</g>
<g id="_x33_D">
</g>
<g id="_x32_D-3D">
</g>
<g id="_x32_D">
	<line class="st1" x1="216.2" y1="208.9" x2="216.2" y2="358.6"/>
	<line class="st1" x1="216.2" y1="433.4" x2="216.2" y2="583.1"/>
	<line class="st1" x1="216.2" y1="583.1" x2="291" y2="657.9"/>
	<line class="st1" x1="216.2" y1="208.9" x2="291" y2="134.1"/>
	<line class="st1" x1="291" y1="208.9" x2="291" y2="358.6"/>
	<line class="st1" x1="291" y1="433.4" x2="291" y2="583.1"/>
	<line class="st1" x1="253.6" y1="396" x2="216.2" y2="433.4"/>
	<line class="st1" x1="216.2" y1="358.6" x2="291" y2="433.4"/>
	<line class="st1" x1="365.9" y1="583.1" x2="365.9" y2="433.4"/>
	<line class="st1" x1="365.9" y1="358.6" x2="365.9" y2="208.9"/>
	<line class="st1" x1="365.9" y1="208.9" x2="291" y2="134.1"/>
	<line class="st1" x1="365.9" y1="583.1" x2="291" y2="657.9"/>
	<line class="st1" x1="291" y1="583.1" x2="291" y2="433.4"/>
	<line class="st1" x1="291" y1="358.6" x2="291" y2="208.9"/>
	<line class="st1" x1="328.5" y1="396" x2="365.9" y2="358.6"/>
	<line class="st1" x1="365.9" y1="433.4" x2="291" y2="358.6"/>
	<line class="st1" x1="321" y1="134.1" x2="291" y2="134.1"/>
	<line class="st1" x1="365.9" y1="208.9" x2="395.8" y2="208.9"/>
	<line class="st1" x1="365.9" y1="358.6" x2="395.8" y2="358.6"/>
	<line class="st1" x1="358.4" y1="396" x2="328.5" y2="396"/>
	<line class="st1" x1="321" y1="358.6" x2="291" y2="358.6"/>
	<line class="st1" x1="291" y1="208.9" x2="321" y2="208.9"/>
	<line class="st1" x1="246.1" y1="358.6" x2="216.2" y2="358.6"/>
	<line class="st1" x1="246.1" y1="208.9" x2="216.2" y2="208.9"/>
	<line class="st1" x1="283.5" y1="396" x2="253.6" y2="396"/>
	<line class="st1" x1="246.1" y1="433.4" x2="216.2" y2="433.4"/>
	<line class="st1" x1="291" y1="433.4" x2="321" y2="433.4"/>
	<line class="st1" x1="291" y1="583.1" x2="321" y2="583.1"/>
	<line class="st1" x1="365.9" y1="583.1" x2="395.8" y2="583.1"/>
	<line class="st1" x1="395.8" y1="433.4" x2="365.9" y2="433.4"/>
	<line class="st1" x1="291" y1="657.9" x2="321" y2="657.9"/>
	<line class="st1" x1="216.2" y1="583.1" x2="246.1" y2="583.1"/>
	<line class="st1" x1="246.1" y1="208.9" x2="246.1" y2="358.6"/>
	<line class="st1" x1="246.1" y1="433.4" x2="246.1" y2="583.1"/>
	<line class="st1" x1="246.1" y1="583.1" x2="321" y2="657.9"/>
	<line class="st1" x1="246.1" y1="208.9" x2="321" y2="134.1"/>
	<line class="st1" x1="321" y1="208.9" x2="321" y2="358.6"/>
	<line class="st1" x1="321" y1="433.4" x2="321" y2="583.1"/>
	<line class="st1" x1="283.5" y1="396" x2="246.1" y2="433.4"/>
	<line class="st1" x1="246.1" y1="358.6" x2="321" y2="433.4"/>
	<line class="st1" x1="395.8" y1="583.1" x2="395.8" y2="433.4"/>
	<line class="st1" x1="395.8" y1="358.6" x2="395.8" y2="208.9"/>
	<line class="st1" x1="395.8" y1="208.9" x2="321" y2="134.1"/>
	<line class="st1" x1="395.8" y1="583.1" x2="321" y2="657.9"/>
	<line class="st1" x1="321" y1="583.1" x2="321" y2="433.4"/>
	<line class="st1" x1="321" y1="358.6" x2="321" y2="208.9"/>
	<line class="st1" x1="358.4" y1="396" x2="395.8" y2="358.6"/>
	<line class="st1" x1="395.8" y1="433.4" x2="321" y2="358.6"/>
</g>
</svg>
